nColumns=19
nRows=56
DataType=double
version=3
OpenSimVersion=4.1
endheader
time	ground_force_calcn_r_vx	ground_force_calcn_r_vy	ground_force_calcn_r_vz	ground_force_calcn_r_px	ground_force_calcn_r_py	ground_force_calcn_r_pz	ground_force_calcn_r_mx	ground_force_calcn_r_my	ground_force_calcn_r_mz	ground_force_calcn_l_vx	ground_force_calcn_l_vy	ground_force_calcn_l_vz	ground_force_calcn_l_px	ground_force_calcn_l_py	ground_force_calcn_l_pz	ground_force_calcn_l_mx	ground_force_calcn_l_my	ground_force_calcn_l_mz
0	8.27377	390.884	-34.0848	-0.218798	0	-0.407494	0.00284408	0.134365	-0.0117165	-8.73658	199.082	33.7141	-0.137082	0	-0.782441	-0.0323608	0.737412	0.124879
0.01	8.13455	390.365	-34.0323	-0.218402	0	-0.40748	0.00267874	0.128549	-0.011207	-8.70071	199.695	33.8023	-0.137235	0	-0.782443	-0.0321394	0.73765	0.124862
0.02	7.96663	389.768	-33.9763	-0.217913	0	-0.407449	0.00251993	0.123288	-0.010747	-8.66393	200.433	33.9165	-0.137417	0	-0.78246	-0.0319141	0.738307	0.124933
0.03	7.76812	389.091	-33.9163	-0.217326	0	-0.407395	0.00236825	0.118621	-0.01034	-8.62759	201.3	34.0596	-0.137625	0	-0.782494	-0.031688	0.739348	0.125096
0.04	7.5375	388.333	-33.8512	-0.21664	0	-0.40732	0.00221964	0.114356	-0.00996848	-8.59299	202.298	34.234	-0.137856	0	-0.782545	-0.0314604	0.740647	0.125337
0.05	7.27377	387.493	-33.78	-0.215853	0	-0.407222	0.00206737	0.110134	-0.00960101	-8.56144	203.425	34.441	-0.138104	0	-0.782614	-0.0312282	0.742002	0.125625
0.06	6.97615	386.578	-33.7022	-0.214966	0	-0.407103	0.0019032	0.105464	-0.00919446	-8.53404	204.676	34.6801	-0.138362	0	-0.782702	-0.0309872	0.743184	0.125924
0.07	6.64379	385.597	-33.6193	-0.213987	0	-0.406964	0.00171911	0.0997749	-0.00869913	-8.51188	206.039	34.9491	-0.138624	0	-0.782804	-0.0307367	0.744016	0.126203
0.08	6.27602	384.569	-33.5342	-0.212918	0	-0.406808	0.00150963	0.092504	-0.00806631	-8.49616	207.497	35.2444	-0.138879	0	-0.782919	-0.0304764	0.744308	0.126424
0.09	5.87261	383.514	-33.4516	-0.211768	0	-0.406634	0.00127344	0.0831628	-0.00725377	-8.48833	209.026	35.5603	-0.139119	0	-0.783044	-0.0302063	0.743835	0.126544
0.1	5.43363	382.458	-33.3766	-0.210548	0	-0.406448	0.00101506	0.0714474	-0.00623512	-8.49003	210.598	35.8899	-0.139333	0	-0.783177	-0.0299305	0.742435	0.126525
0.11	4.95959	381.426	-33.3151	-0.209268	0	-0.406248	0.000744171	0.0572317	-0.00499882	-8.50294	212.178	36.2245	-0.139511	0	-0.783314	-0.0296558	0.740014	0.12634
0.12	4.45147	380.441	-33.2728	-0.207942	0	-0.406037	0.000473044	0.0404282	-0.00353579	-8.52891	213.729	36.5544	-0.139642	0	-0.783455	-0.0293931	0.736572	0.125977
0.13	3.91029	379.523	-33.2552	-0.206584	0	-0.405815	0.000215431	0.0209092	-0.00183215	-8.56996	215.213	36.8697	-0.139715	0	-0.783595	-0.0291572	0.732208	0.12544
0.14	3.33678	378.684	-33.2664	-0.20521	0	-0.405582	-1.43391e-05	-0.00162732	0.000142956	-8.62814	216.594	37.1622	-0.139722	0	-0.783736	-0.028964	0.727088	0.124751
0.15	2.73139	377.929	-33.3085	-0.203835	0	-0.40534	-0.000199969	-0.0276686	0.00243856	-8.70507	217.841	37.425	-0.139657	0	-0.783874	-0.0288297	0.721452	0.123946
0.16	2.09452	377.25	-33.38	-0.202474	0	-0.405089	-0.00032104	-0.0578235	0.00511637	-8.80148	218.929	37.6539	-0.139515	0	-0.784008	-0.0287695	0.715617	0.12308
0.17	1.42669	376.633	-33.4761	-0.201141	0	-0.404834	-0.000351612	-0.0928224	0.00825028	-8.91725	219.844	37.8471	-0.139297	0	-0.784138	-0.0287941	0.709883	0.12221
0.18	0.72808	376.053	-33.5879	-0.199848	0	-0.404579	-0.000258161	-0.13334	0.0119095	-9.05204	220.577	38.0052	-0.139003	0	-0.784262	-0.0289091	0.704447	0.121376
0.19	-0.00213268	375.479	-33.704	-0.198609	0	-0.404329	1.02198e-06	-0.17993	0.016151	-9.20529	221.13	38.1307	-0.13864	0	-0.78438	-0.0291155	0.699414	0.120604
0.2	-0.765899	374.874	-33.8109	-0.197433	0	-0.404093	0.000476111	-0.233035	0.0210181	-9.37625	221.511	38.2277	-0.138215	0	-0.784494	-0.0294155	0.694932	0.119929
0.21	-1.56566	374.198	-33.8946	-0.196331	0	-0.403873	0.00122543	-0.292882	0.0265291	-9.56421	221.734	38.3015	-0.13774	0	-0.784605	-0.0298143	0.691208	0.119396
0.22	-2.40386	373.405	-33.941	-0.195316	0	-0.403677	0.00231353	-0.359374	0.0326657	-9.76855	221.818	38.358	-0.137222	0	-0.784713	-0.0303157	0.688389	0.11904
0.23	-3.28157	372.453	-33.9377	-0.1944	0	-0.40351	0.00380728	-0.432121	0.0393745	-9.98864	221.782	38.4036	-0.136672	0	-0.784821	-0.0309145	0.686407	0.118858
0.24	-4.19693	371.303	-33.8741	-0.193602	0	-0.403379	0.00576981	-0.510456	0.0465691	-10.2238	221.649	38.4447	-0.136094	0	-0.784929	-0.031596	0.684989	0.118811
0.25	-5.1434	369.917	-33.7427	-0.192943	0	-0.403288	0.00825134	-0.593443	0.054132	-10.4735	221.443	38.4874	-0.135499	0	-0.785039	-0.0323316	0.683591	0.11881
0.26	-6.10803	368.259	-33.5378	-0.192452	0	-0.403247	0.0112765	-0.679868	0.0619164	-10.7367	221.188	38.5369	-0.134892	0	-0.785153	-0.0330778	0.681438	0.118725
0.27	-7.07019	366.292	-33.2557	-0.192163	0	-0.403262	0.0148281	-0.768212	0.069746	-11.0118	220.905	38.5971	-0.134279	0	-0.785269	-0.033781	0.677669	0.118404
0.28	-8.00081	363.978	-32.8953	-0.19212	0	-0.40334	0.0188296	-0.856609	0.0774179	-11.2961	220.61	38.6701	-0.133669	0	-0.785392	-0.0343819	0.671465	0.1177
0.29	-8.86326	361.279	-32.4584	-0.192368	0	-0.403492	0.0231339	-0.942971	0.0847194	-11.5856	220.315	38.7564	-0.133069	0	-0.785517	-0.0348119	0.661994	0.116454
0.3	-9.61656	358.153	-31.9487	-0.192959	0	-0.403725	0.0275227	-1.02504	0.0914375	-11.8741	220.023	38.8544	-0.132482	0	-0.78565	-0.0349945	0.648438	0.114509
0.31	-10.2194	354.564	-31.3706	-0.193943	0	-0.404047	0.0317219	-1.10059	0.0973765	-12.1534	219.73	38.9612	-0.131912	0	-0.785787	-0.0348521	0.630117	0.111729
0.32	-10.6347	350.487	-30.7281	-0.195369	0	-0.404465	0.0354314	-1.16771	0.102375	-12.4119	219.418	39.0725	-0.131362	0	-0.785927	-0.0343113	0.606559	0.108012
0.33	-10.8341	345.921	-30.0244	-0.197279	0	-0.404989	0.0383625	-1.22487	0.106313	-12.6351	219.065	39.1822	-0.130835	0	-0.786069	-0.0333143	0.577597	0.103309
0.34	-10.8018	340.891	-29.2633	-0.199709	0	-0.405626	0.0402737	-1.27098	0.109106	-12.8084	218.639	39.283	-0.130332	0	-0.786211	-0.0318366	0.543451	0.0976425
0.35	-10.5369	335.453	-28.4503	-0.202682	0	-0.406384	0.0409994	-1.30526	0.110701	-12.9197	218.102	39.3669	-0.129854	0	-0.786348	-0.0298836	0.504476	0.0910566
0.36	-10.0532	329.699	-27.594	-0.206204	0	-0.407266	0.0404738	-1.32735	0.111092	-12.9619	217.418	39.4252	-0.129398	0	-0.786476	-0.0274872	0.46106	0.0836058
0.37	-9.37781	323.753	-26.7062	-0.210268	0	-0.408276	0.0387382	-1.33737	0.110319	-12.9323	216.547	39.4501	-0.128962	0	-0.786592	-0.0247044	0.413666	0.0753607
0.38	-8.54738	317.767	-25.8021	-0.214844	0	-0.40941	0.0359348	-1.33595	0.108477	-12.8334	215.455	39.4342	-0.128543	0	-0.786694	-0.0216083	0.362773	0.0663974
0.39	-7.60313	311.915	-24.8985	-0.219884	0	-0.410658	0.032282	-1.32436	0.105716	-12.6728	214.115	39.3717	-0.128136	0	-0.786781	-0.0182814	0.308875	0.0567964
0.4	-6.584	306.394	-24.0137	-0.225321	0	-0.412005	0.0280342	-1.3046	0.102248	-12.4634	212.506	39.2586	-0.127739	0	-0.786851	-0.0148098	0.252513	0.0466495
0.41	-5.5208	301.415	-23.1677	-0.231068	0	-0.413431	0.0234324	-1.27932	0.0983326	-12.2213	210.62	39.0929	-0.127344	0	-0.786908	-0.0112715	0.194252	0.0360548
0.42	-4.43235	297.205	-22.3839	-0.237027	0	-0.414907	0.0186646	-1.25153	0.0942585	-11.9626	208.453	38.8746	-0.126951	0	-0.786951	-0.00773044	0.134706	0.0251215
0.43	-3.32447	293.994	-21.6892	-0.243077	0	-0.416398	0.0138445	-1.22432	0.0903232	-11.698	206.01	38.606	-0.126558	0	-0.786983	-0.00423327	0.0745505	0.0139707
0.44	-2.19157	291.99	-21.1121	-0.249092	0	-0.417862	0.00900959	-1.20038	0.0867922	-11.4294	203.299	38.291	-0.126164	0	-0.787006	-0.000817125	0.0145345	0.00273754
0.45	-1.02045	291.349	-20.6773	-0.254939	0	-0.419259	0.00413898	-1.18172	0.0838681	-11.1511	200.334	37.9359	-0.125774	0	-0.787023	0.00247898	-0.044536	-0.00843349
0.46	0.205599	292.161	-20.4039	-0.260496	0	-0.420551	-0.000823175	-1.16975	0.0816931	-10.855	197.136	37.5483	-0.125393	0	-0.787035	0.00561224	-0.101923	-0.0194133
0.47	1.50018	294.435	-20.3017	-0.265657	0	-0.421707	-0.00593685	-1.1652	0.0803426	-10.5346	193.735	37.1364	-0.125024	0	-0.787047	0.00853889	-0.157033	-0.0301011
0.48	2.86653	298.102	-20.3684	-0.270349	0	-0.42271	-0.0112299	-1.16784	0.0797952	-10.1863	190.167	36.7074	-0.12467	0	-0.78706	0.0112114	-0.209304	-0.0404013
0.49	4.29491	303.025	-20.5868	-0.274523	0	-0.423552	-0.0166713	-1.17624	0.0799107	-9.80831	186.475	36.2652	-0.124329	0	-0.787075	0.013573	-0.258048	-0.0501846
0.5	5.76358	309.017	-20.9285	-0.27816	0	-0.424241	-0.0221582	-1.18802	0.0804597	-9.3985	182.696	35.8085	-0.124001	0	-0.787092	0.0155539	-0.302351	-0.0592608
0.51	7.2416	315.864	-21.3597	-0.28127	0	-0.424788	-0.0275202	-1.20037	0.0811732	-8.95498	178.861	35.3302	-0.12368	0	-0.787107	0.0170815	-0.341174	-0.0673918
0.52	8.69018	323.345	-21.8446	-0.283872	0	-0.425208	-0.0325332	-1.2105	0.081779	-8.47912	174.986	34.8188	-0.123359	0	-0.787112	0.01811	-0.373741	-0.074367
0.53	10.0654	331.251	-22.3469	-0.286001	0	-0.425517	-0.0369458	-1.21588	0.0820258	-7.97829	171.078	34.2602	-0.123028	0	-0.787098	0.0186373	-0.399639	-0.0800316
0.54	11.3234	339.386	-22.8331	-0.287691	0	-0.425729	-0.0405262	-1.21466	0.0817195	-7.46543	167.135	33.6393	-0.122676	0	-0.787047	0.0187137	-0.418961	-0.0843245
0.55	12.4255	347.581	-23.2789	-0.288982	0	-0.425855	-0.0431058	-1.2058	0.0807578	-6.95634	163.15	32.9422	-0.122292	0	-0.786942	0.0184252	-0.432134	-0.0872536
